<svg aria-hidden="true" style="position: absolute; width: 0; height: 0; overflow: hidden;" version="1.1" xmlns="http://www.w3.org/2000/svg" xmlns:xlink="http://www.w3.org/1999/xlink">
<defs>
<symbol id="icon-equalizer" viewBox="0 0 32 32">
<title>equalizer</title>
<path d="M6 28h3v-9h-3v9zM18 18h-5c-0.553 0-1 0.447-1 1v3c0 0.552 0.447 1 1 1h5c0.552 0 1-0.448 1-1v-3c0-0.553-0.448-1-1-1zM14.031 21.969h-1v-2.938h1v2.938zM15.969 21.969h-1v-2.938h1v2.938zM18.031 21.969h-1v-2.938h1v2.938zM17 4h-3v13h3v-13zM25 4h-3v5h3v-5zM9 4h-3v8h3v-8zM22 28h3v-12h-3v12zM14 28h3v-4h-3v4zM10 13h-5c-0.553 0-1 0.447-1 1v3c0 0.552 0.447 1 1 1h5c0.552 0 1-0.448 1-1v-3c0-0.553-0.448-1-1-1zM6.031 16.969h-1v-2.938h1v2.938zM8.031 16.969h-1v-2.938h1v2.938zM10.031 16.969h-1v-2.938h1v2.938zM26 10h-5c-0.553 0-1 0.447-1 1v3c0 0.552 0.447 1 1 1h5c0.552 0 1-0.448 1-1v-3c0-0.553-0.448-1-1-1zM22.031 13.969h-1v-2.938h1v2.938zM23.969 13.969h-1v-2.938h1v2.938zM26.031 13.969h-1v-2.938h1v2.938z"></path>
</symbol>
<symbol id="icon-coins" viewBox="0 0 32 32">
<title>coins</title>
<path d="M28.5 23h-12.246c0.359-0.619 0.634-1.29 0.816-2h11.43c0.553 0 1 0.447 1 1 0 0.552-0.447 1-1 1zM28.5 20h-11.236c0.041-0.328 0.069-0.661 0.069-1 0-0.34-0.028-0.672-0.069-1h11.236c0.553 0 1 0.447 1 1 0 0.552-0.447 1-1 1zM28.5 17h-11.43c-0.183-0.71-0.457-1.381-0.816-2h12.246c0.553 0 1 0.447 1 1 0 0.552-0.447 1-1 1zM28.5 14h-12.928c-0.65-0.811-1.453-1.493-2.369-2h15.297c0.553 0 1 0.447 1 1 0 0.552-0.447 1-1 1zM28.5 11h-16c-0.553 0-1-0.448-1-1 0-0.553 0.447-1 1-1h16c0.553 0 1 0.447 1 1 0 0.552-0.447 1-1 1zM28.5 8h-16c-0.553 0-1-0.448-1-1 0-0.553 0.447-1 1-1h16c0.553 0 1 0.447 1 1 0 0.552-0.447 1-1 1zM16.5 19c0 3.866-3.135 7-7 7s-7-3.134-7-7 3.134-7 7-7c3.865 0 7 3.134 7 7zM11.978 19.761c-0.101-0.239-0.231-0.447-0.394-0.624s-0.348-0.329-0.556-0.456c-0.208-0.127-0.42-0.24-0.637-0.341-0.217-0.1-0.429-0.194-0.637-0.284-0.208-0.089-0.395-0.185-0.559-0.287s-0.296-0.219-0.394-0.35c-0.098-0.131-0.147-0.286-0.147-0.466 0-0.12 0.022-0.234 0.065-0.342 0.044-0.107 0.11-0.2 0.2-0.277 0.089-0.076 0.201-0.137 0.334-0.18 0.133-0.044 0.29-0.065 0.469-0.065 0.229 0 0.439 0.027 0.631 0.083 0.191 0.057 0.36 0.118 0.506 0.187 0.146 0.068 0.269 0.131 0.369 0.189s0.173 0.086 0.219 0.086 0.082-0.012 0.109-0.037c0.026-0.025 0.048-0.064 0.062-0.119 0.015-0.054 0.024-0.123 0.031-0.206 0.006-0.084 0.009-0.187 0.009-0.308 0-0.108-0.002-0.199-0.006-0.271s-0.012-0.134-0.021-0.182c-0.011-0.048-0.023-0.087-0.037-0.116-0.016-0.029-0.043-0.064-0.085-0.105s-0.127-0.094-0.256-0.155c-0.129-0.062-0.277-0.118-0.443-0.167-0.167-0.050-0.346-0.089-0.537-0.118-0.039-0.006-0.079-0.004-0.118-0.009v-1.034h-0.984v1.034c-0.181 0.024-0.356 0.060-0.526 0.109-0.331 0.096-0.618 0.24-0.862 0.434s-0.438 0.438-0.581 0.73c-0.144 0.294-0.215 0.634-0.215 1.021 0 0.337 0.050 0.627 0.149 0.868s0.23 0.451 0.391 0.628c0.161 0.177 0.342 0.328 0.546 0.455 0.204 0.128 0.415 0.241 0.631 0.341s0.427 0.194 0.631 0.284 0.386 0.186 0.546 0.287c0.161 0.103 0.291 0.219 0.391 0.35 0.1 0.132 0.15 0.289 0.15 0.472 0 0.159-0.029 0.303-0.087 0.433s-0.143 0.237-0.253 0.325c-0.11 0.088-0.244 0.155-0.402 0.203-0.159 0.048-0.337 0.072-0.538 0.072-0.304 0-0.572-0.034-0.803-0.103s-0.43-0.145-0.597-0.229c-0.167-0.083-0.303-0.158-0.409-0.228-0.106-0.068-0.188-0.103-0.247-0.103-0.042 0-0.079 0.012-0.109 0.034-0.032 0.023-0.057 0.062-0.075 0.116-0.019 0.055-0.032 0.125-0.041 0.213s-0.013 0.196-0.013 0.325c0 0.192 0.012 0.339 0.034 0.441 0.023 0.103 0.062 0.181 0.116 0.234s0.142 0.115 0.265 0.186 0.276 0.137 0.459 0.201c0.183 0.063 0.395 0.118 0.634 0.164 0.239 0.045 0.499 0.067 0.778 0.067 0.012 0 0.023-0.002 0.036-0.002v0.963h0.983v-1.092c0.047-0.012 0.097-0.018 0.143-0.031 0.362-0.108 0.679-0.27 0.95-0.484s0.485-0.481 0.644-0.802c0.158-0.321 0.236-0.693 0.236-1.118 0.001-0.323-0.049-0.604-0.148-0.844zM15.572 24h12.928c0.553 0 1 0.447 1 1 0 0.552-0.447 1-1 1h-15.297c0.916-0.507 1.719-1.189 2.369-2z"></path>
</symbol>
<symbol id="icon-car" viewBox="0 0 32 32">
<title>car</title>
<path d="M27 22h-23c-1.104 0-2-0.896-2-2v-5c0-1.104 0.896-2 2-2h1c0 0 1.479-4.5 1.916-6s0.896-2 2.001-2h13.166c1.104 0 1.438 0.312 2 2s1.917 6 1.917 6h1c1.104 0 2 0.896 2 2v5c0 1.104-0.896 2-2 2zM9 20h13v-1h-13v1zM22 13c0-1.104-0.896-2.125-2-2.125s-2 1.021-2 2.125c0 0.026 4 0.026 4 0zM9 18h13v-1h-13v1zM9 16h13v-1h-13v1zM4.062 17c0 1.104 0.896 2 2 2s2-0.896 2-2-0.896-2-2-2-2 0.896-2 2zM23.083 7c-0.25-0.688-0.447-1-1-1h-6.083v1h0.5c0.276 0 0.5 0.224 0.5 0.5s-0.224 0.5-0.5 0.5h-2c-0.276 0-0.5-0.224-0.5-0.5s0.224-0.5 0.5-0.5h0.5v-1h-6.083c-0.553 0-0.751 0.125-1 1-0.251 0.875-1.917 6-1.917 6h11.46c0.023-1.364 1.13-2.643 2.495-2.643s2.472 1.278 2.496 2.643h2.549c0 0-1.667-5.312-1.917-6zM24.938 15.062c-1.104 0-2 0.896-2 2s0.896 2 2 2 2-0.896 2-2-0.896-2-2-2zM7 25.5c0 0.828-0.672 1.5-1.5 1.5s-1.5-0.672-1.5-1.5v-2.5h3v2.5zM27 25.5c0 0.828-0.672 1.5-1.5 1.5s-1.5-0.672-1.5-1.5v-2.5h3v2.5z"></path>
</symbol>
<symbol id="icon-price-tags" viewBox="0 0 40 32">
<title>price-tags</title>
<path d="M38.5 0h-12c-0.825 0-1.977 0.477-2.561 1.061l-14.879 14.879c-0.583 0.583-0.583 1.538 0 2.121l12.879 12.879c0.583 0.583 1.538 0.583 2.121 0l14.879-14.879c0.583-0.583 1.061-1.736 1.061-2.561v-12c0-0.825-0.675-1.5-1.5-1.5zM31 12c-1.657 0-3-1.343-3-3s1.343-3 3-3 3 1.343 3 3-1.343 3-3 3z"></path>
<path d="M4 17l17-17h-2.5c-0.825 0-1.977 0.477-2.561 1.061l-14.879 14.879c-0.583 0.583-0.583 1.538 0 2.121l12.879 12.879c0.583 0.583 1.538 0.583 2.121 0l0.939-0.939-13-13z"></path>
</symbol>
<symbol id="icon-equalizer2" viewBox="0 0 32 32">
<title>equalizer2</title>
<path d="M28 14h0.5c0.825 0 1.5-0.675 1.5-1.5v-5c0-0.825-0.675-1.5-1.5-1.5h-0.5v-6h-4v6h-0.5c-0.825 0-1.5 0.675-1.5 1.5v5c0 0.825 0.675 1.5 1.5 1.5h0.5v18h4v-18zM24 8h4v4h-4v-4zM18.5 26c0.825 0 1.5-0.675 1.5-1.5v-5c0-0.825-0.675-1.5-1.5-1.5h-0.5v-18h-4v18h-0.5c-0.825 0-1.5 0.675-1.5 1.5v5c0 0.825 0.675 1.5 1.5 1.5h0.5v6h4v-6h0.5zM14 20h4v4h-4v-4zM8.5 14c0.825 0 1.5-0.675 1.5-1.5v-5c0-0.825-0.675-1.5-1.5-1.5h-0.5v-6h-4v6h-0.5c-0.825 0-1.5 0.675-1.5 1.5v5c0 0.825 0.675 1.5 1.5 1.5h0.5v18h4v-18h0.5zM4 8h4v4h-4v-4z"></path>
</symbol>
<symbol id="icon-cog" viewBox="0 0 32 32">
<title>cog</title>
<path d="M29.181 19.070c-1.679-2.908-0.669-6.634 2.255-8.328l-3.145-5.447c-0.898 0.527-1.943 0.829-3.058 0.829-3.361 0-6.085-2.742-6.085-6.125h-6.289c0.008 1.044-0.252 2.103-0.811 3.070-1.679 2.908-5.411 3.897-8.339 2.211l-3.144 5.447c0.905 0.515 1.689 1.268 2.246 2.234 1.676 2.903 0.672 6.623-2.241 8.319l3.145 5.447c0.895-0.522 1.935-0.82 3.044-0.82 3.35 0 6.067 2.725 6.084 6.092h6.289c-0.003-1.034 0.259-2.080 0.811-3.038 1.676-2.903 5.399-3.894 8.325-2.219l3.145-5.447c-0.899-0.515-1.678-1.266-2.232-2.226zM16 22.479c-3.578 0-6.479-2.901-6.479-6.479s2.901-6.479 6.479-6.479c3.578 0 6.479 2.901 6.479 6.479s-2.901 6.479-6.479 6.479z"></path>
</symbol>
<symbol id="icon-cogs" viewBox="0 0 32 32">
<title>cogs</title>
<path d="M11.366 22.564l1.291-1.807-1.414-1.414-1.807 1.291c-0.335-0.187-0.694-0.337-1.071-0.444l-0.365-2.19h-2l-0.365 2.19c-0.377 0.107-0.736 0.256-1.071 0.444l-1.807-1.291-1.414 1.414 1.291 1.807c-0.187 0.335-0.337 0.694-0.443 1.071l-2.19 0.365v2l2.19 0.365c0.107 0.377 0.256 0.736 0.444 1.071l-1.291 1.807 1.414 1.414 1.807-1.291c0.335 0.187 0.694 0.337 1.071 0.444l0.365 2.19h2l0.365-2.19c0.377-0.107 0.736-0.256 1.071-0.444l1.807 1.291 1.414-1.414-1.291-1.807c0.187-0.335 0.337-0.694 0.444-1.071l2.19-0.365v-2l-2.19-0.365c-0.107-0.377-0.256-0.736-0.444-1.071zM7 27c-1.105 0-2-0.895-2-2s0.895-2 2-2 2 0.895 2 2-0.895 2-2 2zM32 12v-2l-2.106-0.383c-0.039-0.251-0.088-0.499-0.148-0.743l1.799-1.159-0.765-1.848-2.092 0.452c-0.132-0.216-0.273-0.426-0.422-0.629l1.219-1.761-1.414-1.414-1.761 1.219c-0.203-0.149-0.413-0.29-0.629-0.422l0.452-2.092-1.848-0.765-1.159 1.799c-0.244-0.059-0.492-0.109-0.743-0.148l-0.383-2.106h-2l-0.383 2.106c-0.251 0.039-0.499 0.088-0.743 0.148l-1.159-1.799-1.848 0.765 0.452 2.092c-0.216 0.132-0.426 0.273-0.629 0.422l-1.761-1.219-1.414 1.414 1.219 1.761c-0.149 0.203-0.29 0.413-0.422 0.629l-2.092-0.452-0.765 1.848 1.799 1.159c-0.059 0.244-0.109 0.492-0.148 0.743l-2.106 0.383v2l2.106 0.383c0.039 0.251 0.088 0.499 0.148 0.743l-1.799 1.159 0.765 1.848 2.092-0.452c0.132 0.216 0.273 0.426 0.422 0.629l-1.219 1.761 1.414 1.414 1.761-1.219c0.203 0.149 0.413 0.29 0.629 0.422l-0.452 2.092 1.848 0.765 1.159-1.799c0.244 0.059 0.492 0.109 0.743 0.148l0.383 2.106h2l0.383-2.106c0.251-0.039 0.499-0.088 0.743-0.148l1.159 1.799 1.848-0.765-0.452-2.092c0.216-0.132 0.426-0.273 0.629-0.422l1.761 1.219 1.414-1.414-1.219-1.761c0.149-0.203 0.29-0.413 0.422-0.629l2.092 0.452 0.765-1.848-1.799-1.159c0.059-0.244 0.109-0.492 0.148-0.743l2.106-0.383zM21 15.35c-2.402 0-4.35-1.948-4.35-4.35s1.948-4.35 4.35-4.35 4.35 1.948 4.35 4.35c0 2.402-1.948 4.35-4.35 4.35z"></path>
</symbol>
</defs>
</svg>
